<svg xmlns="http://www.w3.org/2000/svg" xmlns:xlink="http://www.w3.org/1999/xlink" width="120px" height="120px" viewBox="0 0 120 120"><title>iterate-black</title><desc>Created with Sketch.</desc><g id="iterate-black" stroke="none" stroke-width="1" fill="none" fill-rule="evenodd" stroke-linecap="round" stroke-linejoin="round"><path d="M24.5650315,73 C22.8281817,68.9323573 21.8663108,64.4616371 21.8663108,59.7721735 C21.8663108,44.2217354 32.4219715,31.1020517 46.8525266,27" id="Stroke-77" stroke="#000000" stroke-width="3"></path><path d="M64.1871342,25 C80.3022092,27.9444383 92.517471,42.0727515 92.517471,59.0556726 C92.517471,62.8809471 91.8969895,66.5589997 90.7557023,70" id="Stroke-81" stroke="#000000" stroke-width="3"></path><path d="M84.4641697,83 C74.3894444,96.6125946 56.2235411,101.127364 41.1924398,92.8437207 C37.8084484,90.9763554 34.8381114,88.6047225 32.3237909,85.8575155" id="Stroke-85" stroke="#000000" stroke-width="3"></path><polyline id="Path-3" stroke="#000000" stroke-width="2.6" transform="translate(34.722727, 87.977273) rotate(-135.000000) translate(-34.722727, -87.977273) " points="31 80 38.4454545 87.8807121 31 95.9545455"></polyline><polyline id="Path-3" stroke="#000000" stroke-width="2.6" transform="translate(91.722727, 67.977273) rotate(-257.000000) translate(-91.722727, -67.977273) " points="88 60 95.4454545 67.8807121 88 75.9545455"></polyline><polyline id="Path-3-Copy" stroke="#000000" stroke-width="2.6" transform="translate(43.722727, 27.977273) rotate(-19.000000) translate(-43.722727, -27.977273) " points="40 20 47.4454545 27.8807121 40 35.9545455"></polyline></g></svg>