<svg xmlns="http://www.w3.org/2000/svg" xmlns:xlink="http://www.w3.org/1999/xlink" width="120px" height="120px" viewBox="0 0 120 120"><title>leadership-black</title><desc>Created with Sketch.</desc><g id="leadership-black" stroke="none" stroke-width="1" fill="none" fill-rule="evenodd"><circle id="Oval" stroke="#000000" stroke-width="3" fill-rule="nonzero" cx="61" cy="26" r="4"></circle><path d="M56.4562337,33.4058852 L65.4509857,33.7039326 C66.1167946,33.7366239 66.7799296,34.4231932 66.9015206,35.1086731 C68.8880213,43.4770607 69.9183732,47.8865713 69.9925763,48.3372051 C70.1038809,49.0131557 68.9465825,49.3361234 67.6635671,49.5754342 L65.1085399,41.7062237 C64.638357,41.9252884 64.4974477,46.8672264 64.445595,47.4028652 L64.445595,64.6502488 C64.3710316,65.4175433 63.7528234,66.0009622 63.0154671,66 L57.9389482,65.9830267 C57.2071341,65.9850067 56.5910444,65.4108547 56.5088203,64.6502488 C56.4540042,64.1431781 56.2052893,56.4951697 55.7626755,41.7062237 C55.742846,41.5256599 55.6918389,41.3503621 55.6121357,41.1888584 L49.1604307,28.1928677 C48.8478635,27.5605098 49.0027917,26.7854919 49.5314038,26.337101 C49.8317364,26.0813504 50.2181234,25.9633783 50.6028332,26.0099711 C50.9875429,26.0565638 51.3379325,26.2637681 51.5744437,26.5845366 L55.3701967,32.815414 C55.6298256,33.1718944 56.0281165,33.3884426 56.4562337,33.4058852 Z" id="Path" stroke="#000000" stroke-width="3" stroke-linecap="round" stroke-linejoin="round" fill-rule="nonzero"></path><polygon id="1" fill="#000000" fill-rule="nonzero" points="61.953 88 61.953 78.662 60.217 78.662 57.277 81.616 58.411 82.806 59.965 81.224 59.965 88"></polygon><path d="M38.686,93 L38.686,91.25 L34.878,91.25 C37.3,89.486 38.616,88.1 38.616,86.504 C38.616,84.642 37.034,83.522 35.046,83.522 C33.744,83.522 32.358,83.998 31.448,85.048 L32.582,86.364 C33.212,85.706 34.024,85.286 35.088,85.286 C35.858,85.286 36.6,85.692 36.6,86.504 C36.6,87.652 35.48,88.618 31.658,91.446 L31.658,93 L38.686,93 Z" id="2" fill="#000000" fill-rule="nonzero"></path><path d="M84.682,94.646 C86.922,94.646 88.364,93.512 88.364,91.902 C88.364,90.502 87.132,89.76 86.18,89.662 C87.216,89.48 88.224,88.71 88.224,87.534 C88.224,85.98 86.88,85 84.696,85 C83.058,85 81.882,85.63 81.126,86.484 L82.12,87.73 C82.778,87.1 83.59,86.764 84.486,86.764 C85.466,86.764 86.222,87.128 86.222,87.87 C86.222,88.556 85.536,88.864 84.5,88.864 L84.0805185,88.8634815 C83.7735556,88.8624444 83.45,88.8593333 83.338,88.85 L83.338,90.642 C83.478,90.628 84.108,90.614 84.5,90.614 C85.802,90.614 86.376,90.95 86.376,91.692 C86.376,92.392 85.746,92.882 84.612,92.882 C83.702,92.882 82.68,92.49 82.036,91.818 L81,93.148 C81.686,93.988 82.96,94.646 84.682,94.646 Z" id="3" fill="#000000" fill-rule="nonzero"></path><rect id="Rectangle" stroke="#000000" stroke-width="3" stroke-linejoin="round" x="22" y="78" width="26" height="20"></rect><rect id="Rectangle-Copy-7" stroke="#000000" stroke-width="3" stroke-linejoin="round" x="48" y="69" width="24" height="29"></rect><rect id="Rectangle-Copy-8" stroke="#000000" stroke-width="3" stroke-linejoin="round" x="72" y="82" width="26" height="16"></rect><line x1="60" y1="51.6363636" x2="60" y2="64.3636364" id="Line-2" stroke="#000000" stroke-width="3" stroke-linecap="round"></line></g></svg>