<svg xmlns="http://www.w3.org/2000/svg" xmlns:xlink="http://www.w3.org/1999/xlink" width="120px" height="120px" viewBox="0 0 120 120"><title>scale-black</title><desc>Created with Sketch.</desc><g id="scale-black" stroke="none" stroke-width="1" fill="none" fill-rule="evenodd" stroke-linejoin="round"><polyline id="Path-3" stroke="#000000" stroke-width="2.6" stroke-linecap="round" transform="translate(44.599602, 76.100398) rotate(-225.000000) translate(-44.599602, -76.100398) " points="40.6700563 67.6799437 48.5291472 75.9984732 40.6700563 84.5208528"></polyline><line x1="40.1855612" y1="69.6550421" x2="61.5173793" y2="69.6450734" id="Line-Copy-3" stroke="#000000" stroke-width="2.6" stroke-linecap="round" transform="translate(50.851470, 69.650058) rotate(-225.000000) translate(-50.851470, -69.650058) "></line><polyline id="Path-3" stroke="#000000" stroke-width="2.6" stroke-linecap="round" transform="translate(76.305640, 44.094360) rotate(-45.000000) translate(-76.305640, -44.094360) " points="72.5829132 36.1170868 80.0283678 43.9977989 72.5829132 52.0716322"></polyline><line x1="60.2782722" y1="50.2107402" x2="80.4873631" y2="50.1996767" id="Line-Copy-3" stroke="#000000" stroke-width="2.6" stroke-linecap="round" transform="translate(70.382818, 50.205208) rotate(-45.000000) translate(-70.382818, -50.205208) "></line><rect id="Rectangle" stroke="#000000" stroke-width="3" x="29" y="29" width="64" height="64"></rect><rect id="Rectangle" stroke="#000000" stroke-width="3" fill="#FFFFFF" x="26" y="87" width="8" height="8"></rect><rect id="Rectangle-Copy-20" stroke="#000000" stroke-width="3" fill="#FFFFFF" x="26" y="26" width="8" height="8"></rect><rect id="Rectangle-Copy-21" stroke="#000000" stroke-width="3" fill="#FFFFFF" x="87" y="26" width="8" height="8"></rect><rect id="Rectangle-Copy-22" stroke="#000000" stroke-width="3" fill="#FFFFFF" x="87" y="87" width="8" height="8"></rect></g></svg>